HIERARCHY
ROOT Hips
{
  OFFSET 13.6774 106.653 -34.4427
  CHANNELS 6 Xposition Yposition Zposition Zrotation Xrotation Yrotation
  JOINT ToSpine
  {
    OFFSET -2.69724 7.43032 -0.144315
    CHANNELS 3 Zrotation Xrotation Yrotation
    JOINT Spine
    {
      OFFSET -0.0310711 10.7595 1.96963
      CHANNELS 3 Zrotation Xrotation Yrotation
      JOINT Spine1
      {
        OFFSET 19.9056 3.91189 0.764692
        CHANNELS 3 Zrotation Xrotation Yrotation
        JOINT Neck
        {
          OFFSET 25.9749 7.03908 -0.130764
          CHANNELS 3 Zrotation Xrotation Yrotation
          JOINT Head
          {
            OFFSET 9.52751 0.295786 -0.907742
            CHANNELS 3 Zrotation Xrotation Yrotation
            End Site
            {
              OFFSET 16.4037 0.713936 2.7358
            }
          }
        }
        JOINT LeftShoulder
        {
          OFFSET 17.7449 4.33886 11.7777
          CHANNELS 3 Zrotation Xrotation Yrotation
          JOINT LeftArm
          {
            OFFSET 0.911315 1.27913 9.80584
            CHANNELS 3 Zrotation Xrotation Yrotation
            JOINT LeftForeArm
            {
              OFFSET 28.6126 1.18197 -3.53199
              CHANNELS 3 Zrotation Xrotation Yrotation
              JOINT LeftHand
              {
                OFFSET 27.5088 0.0218783 0.327423
                CHANNELS 3 Zrotation Xrotation Yrotation
                End Site
                {
                  OFFSET 18.6038 -0.000155887 0.382096
                }
              }
            }
          }
        }
        JOINT RightShoulder
        {
          OFFSET 17.1009 2.89543 -12.2328
          CHANNELS 3 Zrotation Xrotation Yrotation
          JOINT RightArm
          {
            OFFSET 1.4228 0.178766 -10.211
            CHANNELS 3 Zrotation Xrotation Yrotation
            JOINT RightForeArm
            {
              OFFSET 28.733 1.87905 2.64907
              CHANNELS 3 Zrotation Xrotation Yrotation
              JOINT RightHand
              {
                OFFSET 27.4588 0.290562 -0.101845
                CHANNELS 3 Zrotation Xrotation Yrotation
                End Site
                {
                  OFFSET 17.8396 -0.255518 -0.000602873
                }
              }
            }
          }
        }
      }
    }
  }
  JOINT LeftUpLeg
  {
    OFFSET -5.61296 -2.22332 -10.2353
    CHANNELS 3 Zrotation Xrotation Yrotation
    JOINT LeftLeg
    {
      OFFSET 2.56703 -44.7417 -7.93097
      CHANNELS 3 Zrotation Xrotation Yrotation
      JOINT LeftFoot
      {
        OFFSET 3.16933 -46.5642 -3.96578
        CHANNELS 3 Zrotation Xrotation Yrotation
        JOINT LeftToeBase
        {
          OFFSET 0.346054 -6.02161 12.8035
          CHANNELS 3 Zrotation Xrotation Yrotation
          End Site
          {
            OFFSET 0.134235 -1.35082 5.13018
          }
        }
      }
    }
  }
  JOINT RightUpLeg
  {
    OFFSET -5.7928 -1.72406 10.6446
    CHANNELS 3 Zrotation Xrotation Yrotation
    JOINT RightLeg
    {
      OFFSET -2.57161 -44.7178 -7.85259
      CHANNELS 3 Zrotation Xrotation Yrotation
      JOINT RightFoot
      {
        OFFSET -3.10148 -46.5936 -4.03391
        CHANNELS 3 Zrotation Xrotation Yrotation
        JOINT RightToeBase
        {
          OFFSET -0.0828122 -6.13587 12.8035
          CHANNELS 3 Zrotation Xrotation Yrotation
          End Site
          {
            OFFSET -0.131328 -1.35082 5.13018
          }
        }
      }
    }
  }
}
MOTION
Frames: 12
Frame Time: 0.03333333333333333
0.0000 93.1000 0.0000 60.2175 -39.7189 -19.0088 -71.0017 0.3032 88.0094 90.1672 67.2825 -7.6172 -2.1472 14.1653 8.8211 -137.3090 33.0126 156.6778 -160.5441 74.8766 -180.4856 0.1909 -14.8878 -18.7386 -61.9597 37.1619 -153.8350 9.1788 -2.8538 -100.2358 -0.1715 0.1672 0.1196 -1.0339 3.5628 30.1842 -133.9184 -31.5069 97.9506 16.9413 8.1432 115.9180 0.1326 -0.1041 -0.3978 -52.0169 16.7664 95.4187 -1.2499 29.8561 -4.4553 -0.8667 -2.9218 -0.9663 1.8297 -7.4972 4.5633 -31.8846 -16.0650 92.1088 0.6469 43.4448 -1.8883 -6.6708 3.3490 0.3056 -0.0997 -11.1741 -0.7817 
0.0000 93.1000 0.0000 59.8224 -41.9452 -21.1805 -71.0018 0.2549 88.0083 94.1651 67.6656 -11.1713 -2.4914 14.7723 8.6968 -137.1372 32.9600 156.4207 -159.4498 74.9398 -180.5556 0.5737 -15.1527 -19.2268 -61.8382 36.9061 -152.9306 8.8756 -2.5270 -99.8995 -0.0425 0.0991 0.1732 -0.8474 3.9698 31.9169 -134.1221 -29.7419 100.9213 16.4518 7.4418 113.8493 0.0416 -0.0107 -0.1177 -51.1320 15.3229 95.9662 -2.1139 35.2723 -3.8005 -0.0743 -7.9270 -1.7427 2.9965 -9.9083 8.3693 -29.0417 -16.5716 95.7635 1.8249 46.1310 -1.8279 -3.9900 5.2578 0.0462 0.4322 -11.8385 -3.5438 
0.0000 93.1000 0.0000 59.1526 -44.7197 -23.0732 -71.0021 0.1674 88.0036 99.1977 67.8035 -15.9356 -3.1800 16.0611 7.9767 -136.3733 32.9343 156.9082 -159.6719 75.3052 -179.5250 0.6593 -15.3865 -19.6033 -63.0522 35.9970 -151.7075 7.2510 -2.1689 -100.3222 0.2101 0.1449 0.0615 -0.8529 4.3792 33.3480 -135.1258 -28.2437 102.7785 14.4403 6.5398 112.7122 -0.0643 -0.1697 -0.1205 -50.8723 14.1045 99.6392 -2.5949 38.5019 -3.5012 0.2163 -12.2394 -2.1603 3.0508 -10.5317 10.2460 -25.2044 -18.1130 97.0367 1.5466 49.2845 1.1807 -1.2749 6.6265 -0.0838 1.1471 -10.5443 -6.5157 
0.0000 93.1000 0.0000 60.1650 -46.8528 -23.2093 -70.9986 -0.0730 88.0022 102.1983 67.9665 -18.1980 -3.7969 16.5907 8.1110 -136.4908 33.8971 157.2258 -158.5446 76.2122 -180.3104 3.4762 -15.5523 -19.8832 -63.3521 34.9702 -150.8574 6.5114 -0.5171 -100.2148 1.2486 -0.4661 -0.0458 0.6404 4.7870 35.3992 -134.7478 -25.6740 105.0097 13.0919 4.5134 111.7611 0.1196 0.4456 1.2120 -49.8753 14.1944 100.9124 -3.0179 42.2575 -5.4281 0.9228 -13.6006 -3.7390 2.4449 -10.6274 12.4411 -23.1405 -19.9561 95.1444 2.9450 51.4286 3.7510 -1.0474 4.9606 0.6402 4.5563 -12.0634 -9.9506 
0.0000 93.1000 0.0000 61.0154 -47.1429 -21.6460 -71.0178 -0.5536 87.9931 103.1383 68.0937 -19.2567 -4.0191 16.1445 8.2833 -137.3904 33.9888 158.3429 -157.3694 75.4722 177.8762 0.8519 -16.1310 -20.6401 -61.9440 35.2429 -150.5504 8.1261 -1.7718 -100.4353 0.4616 -0.6278 0.6165 -0.9137 5.0972 35.3968 -135.0486 -24.7660 102.9499 12.7270 5.5908 113.4772 0.3530 0.5452 0.6605 -47.9277 14.5169 101.0331 -4.4290 47.0767 -7.7106 0.0386 -15.3120 -2.2769 3.9634 -12.8332 15.1927 -22.7467 -21.2134 92.0835 4.8090 55.3903 9.1158 0.9537 5.1494 -0.9301 2.8374 -18.8077 -10.3207 
0.0000 93.1000 0.0000 62.0907 -47.1631 -20.7227 -71.0153 -0.4748 87.9973 103.0677 68.4178 -18.2708 -3.9644 16.0528 8.4105 -137.2888 33.9320 159.4627 -157.6104 75.3340 178.6513 0.8324 -16.2086 -21.2283 -60.9015 35.2281 -149.7994 9.2551 -2.3551 -100.9715 0.6283 -0.5816 0.4422 -1.0742 5.3249 36.1245 -135.1279 -24.2965 101.9591 12.8486 5.6959 113.8551 0.1081 0.6104 0.6650 -46.8625 13.9435 101.0837 -4.6724 48.2188 -8.0364 0.4276 -17.2347 -2.5654 3.9722 -12.3969 17.0885 -22.6251 -22.4146 88.8060 3.9792 57.2473 4.9334 0.3378 3.8325 -0.5618 2.5298 -21.7891 -3.1295 
0.0000 93.1000 0.0000 62.0606 -47.3362 -20.8083 -71.0203 -1.2876 88.0013 101.1716 68.8022 -17.2798 -4.4707 16.1171 8.1983 -137.4150 34.5069 159.3990 -157.8508 76.0630 178.9404 0.2941 -15.6079 -22.5167 -59.9172 33.3874 -148.8194 9.9242 -2.9476 -101.2563 0.0063 -1.2604 0.8879 -1.6001 5.1463 36.9202 -134.9144 -22.2704 100.9001 12.2300 5.9483 114.9765 0.6706 1.3479 1.0059 -48.1174 12.2230 101.8169 -4.1279 48.4356 -7.8849 0.7512 -18.4864 -2.0452 3.6342 -12.0349 18.5278 -24.4209 -23.7990 85.8720 3.2773 55.0165 0.5120 0.0769 1.8668 -1.1416 2.0424 -18.3386 -0.9299 
0.0000 93.1000 0.0000 63.0975 -46.9969 -20.7325 -71.0266 -0.7171 87.9972 101.1792 68.8281 -17.4010 -4.5123 16.0489 7.6052 -137.1359 34.3931 159.3491 -156.9131 76.0152 176.7991 -2.5344 -16.0218 -23.0809 -59.9505 33.2203 -148.9125 9.1229 -2.7821 -102.3035 -1.0507 -0.3341 0.5863 -3.3012 4.9715 37.8906 -134.6855 -21.3808 99.9237 11.0409 6.4244 116.1542 0.2187 0.3333 -0.5434 -48.2144 12.0814 101.7522 -3.7827 48.6053 -7.8184 0.0035 -19.3944 -0.7120 3.7200 -11.0257 18.9781 -25.9755 -24.1052 83.3100 2.2968 51.3445 -1.5192 0.3848 -1.1323 -1.6074 -0.8124 -11.9725 -1.0871 
0.0000 93.1000 0.0000 63.0178 -46.8456 -19.7777 -71.0076 -0.7552 88.0058 101.9080 68.9655 -17.8792 -4.4228 16.3662 8.3867 -137.3470 34.2556 160.1601 -160.2662 76.0400 -178.7613 -0.4979 -15.6668 -23.2054 -60.2748 33.2910 -147.8271 8.7231 -2.2736 -102.1201 -0.1709 -0.5157 0.0185 -2.2409 4.8041 38.5905 -135.0110 -21.0080 98.0737 11.0714 4.8859 116.7811 -0.0079 0.5232 0.2192 -47.5567 11.6616 101.3087 -3.7525 49.4321 -6.8552 0.8711 -19.8180 -1.8053 3.0132 -11.0776 18.6206 -27.9190 -23.0689 82.8323 2.2264 49.0158 -3.4444 1.3574 -2.2974 -0.8023 0.2949 -7.3008 0.4593 
0.0000 93.1000 0.0000 62.8936 -48.0172 -20.0241 -71.0083 -0.5228 88.0041 101.0785 69.2393 -18.0385 -4.3026 16.6684 9.0472 -138.2785 34.4435 160.9222 -162.2328 76.1164 -177.1884 -0.1431 -15.7530 -23.2450 -61.0367 33.2595 -147.8366 10.4758 -2.6733 -102.5103 0.0335 -0.3858 -0.0001 -2.0069 5.0094 38.6493 -136.1026 -20.4972 97.7880 10.0503 4.9248 117.0625 -0.1244 0.3467 0.0963 -47.2247 11.0274 100.6722 -3.8967 50.1268 -7.0194 0.8257 -19.7213 -2.0910 3.1191 -12.0276 18.9406 -27.7853 -23.3609 84.9459 2.2526 48.1086 -2.4205 1.1708 -1.2998 -0.6292 1.1865 -9.7293 -1.0024 
0.0000 93.1000 0.0000 64.0777 -47.5981 -20.0697 -71.0074 -0.3577 88.0045 101.9159 69.1170 -18.1818 -4.3665 16.9858 8.4770 -138.2940 34.4858 161.1336 -163.0380 75.9307 -176.5268 -0.3983 -16.1665 -23.7282 -62.0496 33.3315 -147.8077 10.3617 -3.1563 -102.3456 -0.0838 -0.2622 0.1025 -2.1632 5.2409 38.1716 -136.8837 -20.0886 97.5533 9.6732 4.9096 116.9327 0.0057 0.2576 0.1144 -47.1007 10.9099 100.0793 -4.0972 50.4868 -7.3493 0.7188 -20.4682 -1.8994 3.0931 -10.9523 20.0413 -28.1956 -23.9409 83.9571 2.3049 48.0036 -2.5274 1.3345 -0.2820 -0.9044 0.8251 -9.9349 -0.8285 
0.0000 93.1000 0.0000 63.8646 -46.9629 -19.0939 -71.0054 0.0979 88.0038 100.8816 69.3335 -17.1674 -3.9239 16.9557 8.5365 -138.3757 33.9959 162.1769 -162.4774 75.9725 -176.3098 -0.1762 -16.0035 -23.4593 -61.7803 33.0420 -147.7849 10.5910 -3.3159 -102.1094 -0.0997 0.1071 -0.1579 -1.9319 4.8882 38.1824 -137.0133 -19.6762 97.0976 9.6064 4.8382 115.9882 -0.1925 -0.1092 -0.0175 -46.2717 11.0332 100.2647 -4.2233 50.3280 -7.5199 1.6428 -20.5239 -2.3089 2.6150 -11.5525 19.9655 -28.8258 -24.3383 82.0792 2.1077 47.0518 -1.1276 1.8654 0.0986 -0.8195 0.7477 -9.1589 0.6202 
